# xmcd
#
# Track frame offsets:
# 150
# 28109
# 56201
# 84100
# 114232
# 143400
# 172277
# 200953
# 230229
# 260772
# 291522
#
# Disc length: 4166 seconds
#
#
# Revision: 0
# Processed by: cddbd v1.5.2PL0 Copyright (c) Steve Scherf et al.
# Submitted via: FreeRIP 2.96 
#
DISCID=ac10440b
DTITLE=Follett, Ken - Die Nadel CD5v6
DYEAR=2003
DGENRE=Hörbuch
TTITLE0=44 Die Nadel
TTITLE1=45 Die Nadel
TTITLE2=46 Die Nadel
TTITLE3=47 Die Nadel
TTITLE4=48 Die Nadel
TTITLE5=49 Die Nadel
TTITLE6=50 Die Nadel
TTITLE7=51 Die Nadel
TTITLE8=52 Die Nadel
TTITLE9=53 Die Nadel
TTITLE10=54 Die Nadel
EXTD=KORRIGIERT\ngelesen von Horst Frank\n\n
EXTT0=
EXTT1=
EXTT2=
EXTT3=
EXTT4=
EXTT5=
EXTT6=
EXTT7=
EXTT8=
EXTT9=
EXTT10=
PLAYORDER=
